<svg width="76" height="18" viewBox="0 0 76 18" fill="none" xmlns="http://www.w3.org/2000/svg">
<g clip-path="url(#clip0_5362_1679)">
<path d="M8.48496 3.80452C9.02581 3.76444 9.55294 3.88348 10.0333 4.12448L17.8432 8.49578C20.1455 10.039 19.6598 12.1888 17.5248 13.5886C15.2732 15.0648 12.7924 16.3281 10.4903 17.733C8.71679 18.4849 6.63057 17.6064 6.38428 15.6291L6.38281 5.77432C6.45217 4.67548 7.41306 3.88421 8.48521 3.80452H8.48496ZM10.0014 7.88016C9.91098 7.90057 9.85437 7.99046 9.8605 8.0801V13.3491C9.89137 13.6897 10.2011 13.456 10.368 13.3644C11.6906 12.636 13.0867 11.8139 14.3755 11.0256C14.5461 10.9213 14.9674 10.7403 14.7961 10.4967C13.2835 9.59899 11.7387 8.74626 10.1979 7.89377C10.1377 7.86826 10.0649 7.86583 10.0017 7.88016H10.0014Z" fill="white"/>
<path d="M21.3171 16.8797C21.3602 16.9247 21.3021 16.9196 21.2808 16.9281C20.7909 17.1215 20.5966 17.2546 20.4234 17.7777C20.3052 17.3853 20.1232 17.1591 19.7421 16.9964C19.6771 16.9687 19.4237 16.9344 19.5362 16.8737C19.6426 16.8163 19.8046 16.7881 19.9198 16.7201C20.2249 16.5399 20.3283 16.2252 20.4234 15.9082C20.5371 16.2573 20.6439 16.5695 20.9909 16.7536C21.0465 16.7833 21.3036 16.8654 21.3171 16.8795V16.8797Z" fill="white"/>
<path d="M5.00731 4.11274L4.84949 3.72354C4.68579 3.41962 4.45739 3.37492 4.1643 3.26195C4.13881 3.25199 4.10524 3.25272 4.10156 3.21506C4.4672 3.13343 4.73186 2.96337 4.8816 2.61669C4.92546 2.51489 4.92963 2.38516 5.00731 2.31689C5.07495 2.64317 5.21611 2.94272 5.52954 3.09796C5.64423 3.15481 5.76039 3.16016 5.86405 3.22696C5.65036 3.32536 5.39402 3.38536 5.23939 3.57826C5.12372 3.72257 5.06074 3.93855 5.00707 4.1125L5.00731 4.11274Z" fill="white"/>
<path d="M1.52575 6.88544C1.86149 6.82422 2.12591 7.02465 2.06955 7.37594C2.05117 7.48964 1.63726 8.0421 1.54413 8.21435C0.634461 9.89552 0.701853 12.0325 1.62623 13.692C1.73357 13.8847 2.13302 14.3961 2.16365 14.5428C2.24134 14.9138 1.86002 15.1553 1.53482 14.9961C1.25422 14.8589 0.737142 13.9235 0.597456 13.6194C-0.268595 11.7307 -0.223994 9.27237 0.934418 7.51297C1.05058 7.33634 1.3177 6.92358 1.52575 6.88544Z" fill="white"/>
<path d="M2.63135 8.1232C2.86122 8.09089 3.14035 8.28233 3.15285 8.51896C3.16387 8.72473 2.97223 8.94265 2.88597 9.12826C2.39805 10.179 2.43481 11.5487 2.90264 12.5997C2.98939 12.7943 3.24058 13.1405 3.25087 13.3244C3.2641 13.5571 3.05286 13.769 2.82128 13.7746C2.55171 13.7809 2.42329 13.5639 2.29954 13.3674C1.54646 12.1721 1.40677 10.5308 1.86112 9.20454C1.96772 8.89309 2.26817 8.17422 2.6316 8.1232H2.63135Z" fill="white"/>
<path d="M3.76004 15.4718C3.77352 15.8374 4.05363 16.0301 4.3727 16.1391C4.22639 16.2225 4.05117 16.2531 3.93036 16.3806C3.82523 16.4919 3.78724 16.6491 3.72328 16.7825C3.63604 16.4146 3.49194 16.3031 3.15302 16.1817C3.13489 16.1751 3.07583 16.1834 3.09911 16.1394C3.11038 16.118 3.41524 16.0053 3.51596 15.8969C3.65001 15.7526 3.62893 15.6416 3.70539 15.5026C3.72108 15.4742 3.70466 15.4618 3.76004 15.4715V15.4718Z" fill="white"/>
<path d="M23.7554 15.0991C23.4378 15.3656 22.9041 15.0988 23.0163 14.6698C23.0587 14.5075 23.3695 14.0656 23.4665 13.854C24.2701 12.1038 24.2387 9.94016 23.3028 8.24684C23.2067 8.07289 22.832 7.58263 22.8105 7.44877C22.7514 7.08216 23.158 6.91575 23.4552 7.05228C23.6236 7.12954 23.9586 7.699 24.062 7.88291C25.0481 9.63478 25.2309 11.8196 24.5168 13.7058C24.4007 14.0124 23.9868 14.905 23.7554 15.0991Z" fill="white"/>
<path d="M22.0941 8.19633C22.3786 8.15065 22.5009 8.33991 22.6347 8.54714C23.473 9.84641 23.6573 12.2802 22.7967 13.6009C22.6403 13.8409 22.383 14.0141 22.1019 13.8322C21.6843 13.5618 22.0698 13.0846 22.1926 12.7593C22.6114 11.6498 22.5175 10.2434 21.9912 9.18511C21.8696 8.94047 21.6853 8.80053 21.7348 8.49515C21.7559 8.36517 21.9664 8.21673 22.0943 8.19633H22.0941Z" fill="white"/>
<path d="M16.752 6.55299e-06C17.1267 0.0131256 17.0926 0.754592 17.1343 1.01527C17.2367 1.65567 17.3215 2.13379 17.8543 2.55894C18.1246 2.77468 18.5762 2.95688 18.7973 3.17772C18.9884 3.36867 18.9531 3.6347 18.6934 3.73188C18.3988 3.84193 17.9332 3.83659 17.6009 3.91117C16.8917 4.07078 16.5973 4.31859 16.1903 4.89194C16.0496 5.08994 15.8712 5.51217 15.6193 5.56368C15.4676 5.59478 15.361 5.55785 15.2698 5.43565C15.1034 5.21238 15.0493 4.26101 14.9682 3.91433C14.8777 3.52756 14.7608 3.2506 14.4984 2.94789C14.2996 2.71831 13.5591 2.13792 13.5118 1.91125C13.4132 1.43775 13.9568 1.46691 14.2771 1.49241C14.6856 1.52497 15.1662 1.75747 15.5602 1.54975C15.8896 1.37629 16.0837 0.74366 16.2606 0.423459C16.3692 0.226917 16.4952 -0.00873945 16.7512 0.000249497H16.752V6.55299e-06Z" fill="white"/>
<path d="M20.6003 4.33779C20.9407 4.29697 21.3531 4.3339 21.2639 4.77703C21.1914 5.13781 20.4393 5.61471 20.1234 5.80687C19.5857 6.13412 18.8677 6.52963 18.2957 6.78667C18.1205 6.86538 17.848 6.99706 17.6666 6.91592C17.4297 6.80999 17.576 6.59353 17.6811 6.4446C18.1965 5.71577 19.6962 4.44614 20.6003 4.33779Z" fill="white"/>
<path d="M19.7897 1.25722C20.1184 1.58277 19.5621 2.11773 19.2756 2.27249C18.7468 2.55795 18.3049 2.14543 18.6965 1.65006C18.9065 1.38428 19.465 0.935565 19.7897 1.25722Z" fill="white"/>
<path d="M18.0323 4.80003C18.2376 5.0301 17.8311 5.58863 17.6718 5.77473C17.5147 5.95839 17.2213 6.30823 16.9743 6.10343C16.7655 5.93021 16.9643 5.60345 17.0743 5.42561C17.2084 5.20915 17.7379 4.4706 18.032 4.80028H18.0323V4.80003Z" fill="white"/>
<path d="M19.4802 6.93456C19.7169 6.90274 20.1852 6.88767 20.2355 7.19475C20.2989 7.58128 19.6708 7.73555 19.3785 7.70227C18.6947 7.62428 18.8903 7.01352 19.4802 6.93456Z" fill="white"/>
<path d="M22.9326 6.44282C22.7567 6.48461 22.5736 6.57255 22.4714 6.72633C22.4043 6.8274 22.408 6.95616 22.3207 7.02564C22.3256 6.69427 22.0338 6.53052 21.7578 6.43092C22.084 6.31066 22.255 6.12651 22.3327 5.7876C22.3972 6.00892 22.4616 6.20012 22.6805 6.31697C22.7155 6.33568 22.9579 6.41099 22.9326 6.44282Z" fill="white"/>
<path d="M3.58598 4.98675C3.62691 5.02708 3.57716 5.02757 3.5502 5.03534C3.25809 5.1211 3.11889 5.2263 3.07159 5.54431C3.01793 5.50544 3.01964 5.41312 2.98729 5.34923C2.92309 5.22168 2.82874 5.13616 2.69714 5.07859C2.64077 5.05405 2.42389 5.03704 2.54299 4.98408C2.59838 4.95954 2.65817 4.95153 2.72115 4.918C2.94637 4.79798 2.97063 4.64663 3.05983 4.42822C3.08679 4.60217 3.1804 4.78487 3.33308 4.8852C3.38993 4.92261 3.57642 4.97703 3.58598 4.98675Z" fill="white"/>
<path d="M22.2548 16.0787C22.2867 16.1098 22.2499 16.1214 22.224 16.1328C22.1549 16.163 22.086 16.1678 22.0093 16.2113C21.8689 16.291 21.7777 16.4557 21.765 16.6127C21.7 16.6185 21.7253 16.6139 21.7167 16.5762C21.65 16.2823 21.5331 16.1775 21.2266 16.127L21.4297 16.0255C21.6378 15.9295 21.6711 15.7325 21.753 15.5449C21.7941 15.7696 21.8613 15.9222 22.0742 16.0272C22.1225 16.051 22.2482 16.0726 22.2548 16.0789V16.0787Z" fill="white"/>
</g>
<g clip-path="url(#clip1_5362_1679)">
<path d="M63.3983 14.05C63.2145 14.0648 62.941 14.0687 62.7601 14.05C59.0389 13.6648 59.1083 7.01631 62.3716 6.52401C67.6214 5.7321 67.6651 13.7083 63.3981 14.05H63.3983ZM62.9185 8.11585C61.6518 8.36419 61.4309 12.3514 63.1683 12.2807C64.4997 12.2265 64.4021 10.2049 64.3089 9.30068C64.2341 8.57365 63.7423 7.95426 62.9185 8.11585Z" fill="white"/>
<path d="M75.9827 11.83C75.7148 13.9146 72.9821 14.4147 71.3077 13.675C70.7109 13.4114 69.9392 12.8787 70.3803 12.1896C70.9378 11.319 71.8256 12.1529 72.587 12.2506C74.2322 12.462 74.4326 10.8952 73.5257 10.6267C72.6455 10.3662 71.536 11.1149 70.9175 10.7693C70.2919 10.4197 70.3961 9.73369 70.4174 9.11819C70.4332 8.65651 70.4735 7.98779 70.5236 7.53461C70.54 7.3876 70.5765 7.14266 70.6566 6.94001C70.7366 6.73735 70.9657 6.55511 71.1412 6.54004C72.1775 6.45135 74.7299 6.44673 75.3046 6.67393C75.7126 6.83528 75.7554 7.77007 75.3961 8.01768C74.848 8.39529 73.0846 8.03542 72.4259 8.25144C72.3075 8.29032 72.2989 8.48811 72.3026 8.61058C72.3115 8.91068 72.5148 9.06303 72.816 9.01468C74.1887 8.79428 75.769 9.49094 75.9825 10.9418C76.0121 11.1433 76.0089 11.6242 75.9825 11.8297H75.9827V11.83Z" fill="white"/>
<path d="M33.0171 7.72314C33.0307 7.51684 32.9746 7.14288 33.0976 6.89673C33.1013 6.8892 33.106 6.88215 33.112 6.87607C33.4149 6.55217 34.6077 6.41196 34.8691 6.94363C34.8748 6.95505 34.8926 7.02819 34.8929 7.04058C34.8951 7.40507 34.9354 12.8807 34.9351 13.0556C34.9351 13.0583 34.9351 13.0607 34.9349 13.0634C34.8738 13.7576 34.7204 13.8913 33.9783 13.8954C33.4068 13.8985 33.2335 13.6424 32.8898 13.2636C32.0054 12.3368 31.4232 10.9822 30.4872 10.0982C30.4622 10.0746 30.4244 10.0658 30.3931 10.0802C30.331 10.1088 30.3357 10.1939 30.3291 10.2889C30.2893 11.3887 30.3372 12.4226 30.331 13.3698C30.3938 13.962 28.4607 14.0713 28.4081 13.3385C28.4081 13.3358 28.4078 13.3331 28.4078 13.3304C28.4066 11.1962 28.3594 9.14489 28.3594 7.05224C28.3594 6.79054 28.6057 6.61972 28.8711 6.59663C29.9216 6.48243 30.1781 6.82626 30.7647 7.58683C30.7699 7.59363 30.7761 7.60019 30.783 7.60529C31.1166 7.85242 32.8918 10.9063 33.0203 10.2483C33.0213 10.2427 33.0218 10.2369 33.0218 10.2313C33.0168 9.35289 33.0168 8.65915 33.0176 7.72314H33.0171Z" fill="white"/>
<path d="M55.9357 11.2315C55.7051 11.2837 56.7657 12.1942 56.9276 12.4076C57.6553 13.3662 56.6656 14.3666 55.656 13.7348C54.7281 13.1543 54.4404 11.5481 53.1985 11.6115C53.0376 11.6198 52.9096 11.7474 52.9059 11.9058C52.8933 12.4761 52.9405 13.5654 52.6986 13.8308C52.4772 14.0733 50.9681 14.108 50.9249 13.5258C50.829 12.2324 50.8777 10.0129 50.895 8.69391C50.9009 8.24073 50.8114 6.76868 51.1435 6.68169C51.8387 6.49969 53.7357 6.5653 54.1511 6.58741C55.0481 6.63528 55.7689 6.67343 56.4731 7.25613C57.3153 7.95303 57.4326 8.86886 57.1613 9.88166C57.0173 10.4199 56.7126 10.6247 56.3197 10.9933C56.2453 11.0631 55.952 11.2278 55.9357 11.2315ZM52.9165 9.75506C52.9165 9.92102 53.0524 10.0556 53.2212 10.0573C54.1269 10.0661 55.4909 10.0328 55.268 8.87761C55.2225 8.64191 54.7397 8.27766 54.3836 8.27523L53.2242 8.27839C53.0544 8.27839 52.9168 8.41374 52.9168 8.58068V9.75506H52.9165Z" fill="white"/>
<path d="M38.7384 11.0311C38.1325 11.0231 38.1285 11.8634 38.4265 12.1107C38.7381 12.3221 41.0201 11.9953 41.7219 12.2983C42.2601 12.5306 42.3167 13.7417 41.4753 13.7857C40.0137 13.8622 38.6934 13.8328 37.0145 13.8328C36.6572 13.8328 36.4581 13.6683 36.3189 13.471C36.2619 13.3901 36.2329 13.2929 36.2344 13.1945L36.3182 7.45281C36.3617 6.88931 36.4763 6.65191 37.0971 6.59189C38.0316 6.48935 39.7769 6.5326 40.7483 6.58752C41.0095 6.60234 41.6374 6.68884 41.7983 6.81277C42.0543 7.00959 42.123 7.78741 41.8808 8.05422C41.6515 8.30693 39.7154 8.16332 38.7141 8.20026C38.467 8.20925 38.2548 8.4537 38.2335 8.69839C38.2135 8.92948 38.2842 9.15837 38.3805 9.22957C38.5906 9.38436 39.8128 9.32968 40.1745 9.32968C40.4617 9.32968 41.0359 9.30538 41.2297 9.41279C41.6987 9.67303 41.6767 11.0314 40.9262 11.0314H38.7384V11.0311Z" fill="white"/>
<path d="M47.8822 12.7324C47.179 12.7156 45.664 12.6979 44.9607 12.7395C44.8708 12.7448 44.786 12.7805 44.743 12.8583C44.5204 13.2592 44.227 14.403 43.1635 13.8205C42.5341 13.4757 42.6389 13.067 42.8136 12.5171C43.2488 11.1471 44.2221 9.00539 44.8722 7.6857C45.3316 6.75358 45.3941 6.44061 46.7357 6.5242C47.4641 6.56963 47.6317 7.28136 47.9131 7.86333C48.479 9.03382 49.7333 11.6686 50.0224 12.8228C50.2718 13.8191 49.0471 14.3534 48.3955 13.6978C48.1899 13.491 48.0322 12.7363 47.8825 12.7326H47.8822V12.7324ZM46.4369 8.89993C46.3554 8.79642 46.2832 8.95752 46.2476 9.0258C45.9736 9.55018 45.8243 10.2614 45.601 10.8478C45.5669 10.9372 45.6185 11.0067 45.7154 11.0023C46.1488 10.9824 46.4819 10.9928 46.9857 10.9926C47.0431 10.9926 47.0833 10.9469 47.0744 10.8913C46.9986 10.4249 46.5044 8.98546 46.4372 8.89993H46.4369Z" fill="white"/>
<path d="M68.1969 11.9498C69.6793 11.9082 69.6845 14.1494 68.1 13.9533C66.8783 13.8021 66.8991 11.986 68.1969 11.9498Z" fill="white"/>
</g>
<defs>
<clipPath id="clip0_5362_1679">
<rect width="24.9552" height="18" fill="white"/>
</clipPath>
<clipPath id="clip1_5362_1679">
<rect width="47.6418" height="7.59375" fill="white" transform="translate(28.3594 6.46875)"/>
</clipPath>
</defs>
</svg>
