<svg width="76" height="18" viewBox="0 0 76 18" fill="none" xmlns="http://www.w3.org/2000/svg">
<g clip-path="url(#clip0_5362_1680)">
<path d="M8.48496 3.80452C9.02581 3.76444 9.55294 3.88348 10.0333 4.12448L17.8432 8.49578C20.1455 10.039 19.6598 12.1888 17.5248 13.5886C15.2732 15.0648 12.7924 16.3281 10.4903 17.733C8.71679 18.4849 6.63057 17.6064 6.38428 15.6291L6.38281 5.77432C6.45217 4.67548 7.41306 3.88421 8.48521 3.80452H8.48496ZM10.0014 7.88016C9.91098 7.90057 9.85437 7.99046 9.8605 8.0801V13.3491C9.89137 13.6897 10.2011 13.456 10.368 13.3644C11.6906 12.636 13.0867 11.8139 14.3755 11.0256C14.5461 10.9213 14.9674 10.7403 14.7961 10.4967C13.2835 9.59899 11.7387 8.74626 10.1979 7.89377C10.1377 7.86826 10.0649 7.86583 10.0017 7.88016H10.0014Z" fill="black"/>
<path d="M21.3171 16.8797C21.3602 16.9247 21.3021 16.9196 21.2808 16.9281C20.7909 17.1215 20.5966 17.2546 20.4234 17.7777C20.3052 17.3853 20.1232 17.1591 19.7421 16.9964C19.6771 16.9687 19.4237 16.9344 19.5362 16.8737C19.6426 16.8163 19.8046 16.7881 19.9198 16.7201C20.2249 16.5399 20.3283 16.2252 20.4234 15.9082C20.5371 16.2573 20.6439 16.5695 20.9909 16.7536C21.0465 16.7833 21.3036 16.8654 21.3171 16.8795V16.8797Z" fill="black"/>
<path d="M5.00731 4.11274L4.84949 3.72354C4.68579 3.41962 4.45739 3.37492 4.1643 3.26195C4.13881 3.25199 4.10524 3.25272 4.10156 3.21506C4.4672 3.13343 4.73186 2.96337 4.8816 2.61669C4.92546 2.51489 4.92963 2.38516 5.00731 2.31689C5.07495 2.64317 5.21611 2.94272 5.52954 3.09796C5.64423 3.15481 5.76039 3.16016 5.86405 3.22696C5.65036 3.32536 5.39402 3.38536 5.23939 3.57826C5.12372 3.72257 5.06074 3.93855 5.00707 4.1125L5.00731 4.11274Z" fill="black"/>
<path d="M1.52575 6.88544C1.86149 6.82422 2.12591 7.02465 2.06955 7.37594C2.05117 7.48964 1.63726 8.0421 1.54413 8.21435C0.634461 9.89552 0.701853 12.0325 1.62623 13.692C1.73357 13.8847 2.13302 14.3961 2.16365 14.5428C2.24134 14.9138 1.86002 15.1553 1.53482 14.9961C1.25422 14.8589 0.737142 13.9235 0.597456 13.6194C-0.268595 11.7307 -0.223994 9.27237 0.934418 7.51297C1.05058 7.33634 1.3177 6.92358 1.52575 6.88544Z" fill="black"/>
<path d="M2.63135 8.1232C2.86122 8.09089 3.14035 8.28233 3.15285 8.51896C3.16387 8.72473 2.97223 8.94265 2.88597 9.12826C2.39805 10.179 2.43481 11.5487 2.90264 12.5997C2.98939 12.7943 3.24058 13.1405 3.25087 13.3244C3.2641 13.5571 3.05286 13.769 2.82128 13.7746C2.55171 13.7809 2.42329 13.5639 2.29954 13.3674C1.54646 12.1721 1.40677 10.5308 1.86112 9.20454C1.96772 8.89309 2.26817 8.17422 2.6316 8.1232H2.63135Z" fill="black"/>
<path d="M3.76004 15.4718C3.77352 15.8374 4.05363 16.0301 4.3727 16.1391C4.22639 16.2225 4.05117 16.2531 3.93036 16.3806C3.82523 16.4919 3.78724 16.6491 3.72328 16.7825C3.63604 16.4146 3.49194 16.3031 3.15302 16.1817C3.13489 16.1751 3.07583 16.1834 3.09911 16.1394C3.11038 16.118 3.41524 16.0053 3.51596 15.8969C3.65001 15.7526 3.62893 15.6416 3.70539 15.5026C3.72108 15.4742 3.70466 15.4618 3.76004 15.4715V15.4718Z" fill="black"/>
<path d="M23.7554 15.0991C23.4378 15.3656 22.9041 15.0988 23.0163 14.6698C23.0587 14.5075 23.3695 14.0656 23.4665 13.854C24.2701 12.1038 24.2387 9.94016 23.3028 8.24684C23.2067 8.07289 22.832 7.58263 22.8105 7.44877C22.7514 7.08216 23.158 6.91575 23.4552 7.05228C23.6236 7.12954 23.9586 7.699 24.062 7.88291C25.0481 9.63478 25.2309 11.8196 24.5168 13.7058C24.4007 14.0124 23.9868 14.905 23.7554 15.0991Z" fill="black"/>
<path d="M22.0941 8.19633C22.3786 8.15065 22.5009 8.33991 22.6347 8.54714C23.473 9.84641 23.6573 12.2802 22.7967 13.6009C22.6403 13.8409 22.383 14.0141 22.1019 13.8322C21.6843 13.5618 22.0698 13.0846 22.1926 12.7593C22.6114 11.6498 22.5175 10.2434 21.9912 9.18511C21.8696 8.94047 21.6853 8.80053 21.7348 8.49515C21.7559 8.36517 21.9664 8.21673 22.0943 8.19633H22.0941Z" fill="black"/>
<path d="M16.752 6.55299e-06C17.1267 0.0131256 17.0926 0.754592 17.1343 1.01527C17.2367 1.65567 17.3215 2.13379 17.8543 2.55894C18.1246 2.77468 18.5762 2.95688 18.7973 3.17772C18.9884 3.36867 18.9531 3.6347 18.6934 3.73188C18.3988 3.84193 17.9332 3.83659 17.6009 3.91117C16.8917 4.07078 16.5973 4.31859 16.1903 4.89194C16.0496 5.08994 15.8712 5.51217 15.6193 5.56368C15.4676 5.59478 15.361 5.55785 15.2698 5.43565C15.1034 5.21238 15.0493 4.26101 14.9682 3.91433C14.8777 3.52756 14.7608 3.2506 14.4984 2.94789C14.2996 2.71831 13.5591 2.13792 13.5118 1.91125C13.4132 1.43775 13.9568 1.46691 14.2771 1.49241C14.6856 1.52497 15.1662 1.75747 15.5602 1.54975C15.8896 1.37629 16.0837 0.74366 16.2606 0.423459C16.3692 0.226917 16.4952 -0.00873945 16.7512 0.000249497H16.752V6.55299e-06Z" fill="black"/>
<path d="M20.6003 4.33779C20.9407 4.29697 21.3531 4.3339 21.2639 4.77703C21.1914 5.13781 20.4393 5.61471 20.1234 5.80687C19.5857 6.13412 18.8677 6.52963 18.2957 6.78667C18.1205 6.86538 17.848 6.99706 17.6666 6.91592C17.4297 6.80999 17.576 6.59353 17.6811 6.4446C18.1965 5.71577 19.6962 4.44614 20.6003 4.33779Z" fill="black"/>
<path d="M19.7897 1.25722C20.1184 1.58277 19.5621 2.11773 19.2756 2.27249C18.7468 2.55795 18.3049 2.14543 18.6965 1.65006C18.9065 1.38428 19.465 0.935565 19.7897 1.25722Z" fill="black"/>
<path d="M18.0323 4.80003C18.2376 5.0301 17.8311 5.58863 17.6718 5.77473C17.5147 5.95839 17.2213 6.30823 16.9743 6.10343C16.7655 5.93021 16.9643 5.60345 17.0743 5.42561C17.2084 5.20915 17.7379 4.4706 18.032 4.80028H18.0323V4.80003Z" fill="black"/>
<path d="M19.4802 6.93456C19.7169 6.90274 20.1852 6.88767 20.2355 7.19475C20.2989 7.58128 19.6708 7.73555 19.3785 7.70227C18.6947 7.62428 18.8903 7.01352 19.4802 6.93456Z" fill="black"/>
<path d="M22.9326 6.44282C22.7567 6.48461 22.5736 6.57255 22.4714 6.72633C22.4043 6.8274 22.408 6.95616 22.3207 7.02564C22.3256 6.69427 22.0338 6.53052 21.7578 6.43092C22.084 6.31066 22.255 6.12651 22.3327 5.7876C22.3972 6.00892 22.4616 6.20012 22.6805 6.31697C22.7155 6.33568 22.9579 6.41099 22.9326 6.44282Z" fill="black"/>
<path d="M3.58598 4.98675C3.62691 5.02708 3.57716 5.02757 3.5502 5.03534C3.25809 5.1211 3.11889 5.2263 3.07159 5.54431C3.01793 5.50544 3.01964 5.41312 2.98729 5.34923C2.92309 5.22168 2.82874 5.13616 2.69714 5.07859C2.64077 5.05405 2.42389 5.03704 2.54299 4.98408C2.59838 4.95954 2.65817 4.95153 2.72115 4.918C2.94637 4.79798 2.97063 4.64663 3.05983 4.42822C3.08679 4.60217 3.1804 4.78487 3.33308 4.8852C3.38993 4.92261 3.57642 4.97703 3.58598 4.98675Z" fill="black"/>
<path d="M22.2548 16.0787C22.2867 16.1098 22.2499 16.1214 22.224 16.1328C22.1549 16.163 22.086 16.1678 22.0093 16.2113C21.8689 16.291 21.7777 16.4557 21.765 16.6127C21.7 16.6185 21.7253 16.6139 21.7167 16.5762C21.65 16.2823 21.5331 16.1775 21.2266 16.127L21.4297 16.0255C21.6378 15.9295 21.6711 15.7325 21.753 15.5449C21.7941 15.7696 21.8613 15.9222 22.0742 16.0272C22.1225 16.051 22.2482 16.0726 22.2548 16.0789V16.0787Z" fill="black"/>
</g>
<g clip-path="url(#clip1_5362_1680)">
<path d="M63.3983 14.8942C63.2145 14.9085 62.941 14.9122 62.7601 14.8942C59.0389 14.5233 59.1083 8.12103 62.3716 7.64696C67.6214 6.88438 67.6651 14.5652 63.3981 14.8942H63.3983ZM62.9185 9.17985C61.6518 9.41899 61.4309 13.2586 63.1683 13.1905C64.4997 13.1383 64.4021 11.1915 64.3089 10.3208C64.2341 9.62069 63.7423 9.02424 62.9185 9.17985Z" fill="black"/>
<path d="M75.9827 12.7565C75.7148 14.7639 72.9821 15.2455 71.3077 14.5332C70.7109 14.2793 69.9392 13.7664 70.3803 13.1028C70.9378 12.2644 71.8256 13.0674 72.587 13.1615C74.2322 13.3651 74.4326 11.8563 73.5257 11.5977C72.6455 11.3469 71.536 12.0678 70.9175 11.7351C70.2919 11.3984 70.3961 10.7378 70.4174 10.1451C70.4332 9.70053 70.4735 9.05658 70.5236 8.62019C70.54 8.47862 70.5765 8.24276 70.6566 8.04761C70.7366 7.85246 70.9657 7.67696 71.1412 7.66246C72.1775 7.57705 74.7299 7.5726 75.3046 7.79139C75.7126 7.94676 75.7554 8.84693 75.3961 9.08537C74.848 9.44899 73.0846 9.10245 72.4259 9.31047C72.3075 9.3479 72.2989 9.53837 72.3026 9.65631C72.3115 9.94529 72.5148 10.092 72.816 10.0454C74.1887 9.83321 75.769 10.5041 75.9825 11.9012C76.0121 12.0952 76.0089 12.5583 75.9825 12.7562H75.9827V12.7565Z" fill="black"/>
<path d="M33.0171 8.80172C33.0307 8.60306 32.9746 8.24295 33.0976 8.00591C33.1013 7.99866 33.106 7.99187 33.112 7.98602C33.4149 7.67411 34.6077 7.5391 34.8691 8.05107C34.8748 8.06207 34.8926 8.1325 34.8929 8.14444C34.8951 8.49543 34.9354 13.7682 34.9351 13.9367C34.9351 13.9393 34.9351 13.9416 34.9349 13.9442C34.8738 14.6127 34.7204 14.7414 33.9783 14.7454C33.4068 14.7484 33.2335 14.5018 32.8898 14.137C32.0054 13.2445 31.4232 11.94 30.4872 11.0888C30.4622 11.0661 30.4244 11.0576 30.3931 11.0714C30.331 11.0991 30.3357 11.181 30.3291 11.2724C30.2893 12.3315 30.3372 13.3271 30.331 14.2392C30.3938 14.8095 28.4607 14.9148 28.4081 14.2091C28.4081 14.2065 28.4078 14.2039 28.4078 14.2013C28.4066 12.1462 28.3594 10.1708 28.3594 8.15567C28.3594 7.90366 28.6057 7.73916 28.8711 7.71693C29.9216 7.60696 30.1781 7.93806 30.7647 8.67045C30.7699 8.677 30.7761 8.68332 30.783 8.68824C31.1166 8.92621 32.8918 11.867 33.0203 11.2334C33.0213 11.228 33.0218 11.2224 33.0218 11.217C33.0168 10.3711 33.0168 9.70306 33.0176 8.80172H33.0171Z" fill="black"/>
<path d="M55.9357 12.1804C55.7051 12.2308 56.7657 13.1075 56.9276 13.313C57.6553 14.2361 56.6656 15.1994 55.656 14.591C54.7281 14.032 54.4404 12.4853 53.1985 12.5464C53.0376 12.5544 52.9096 12.6772 52.9059 12.8298C52.8933 13.379 52.9405 14.4279 52.6986 14.6835C52.4772 14.917 50.9681 14.9504 50.9249 14.3898C50.829 13.1443 50.8777 11.007 50.895 9.73686C50.9009 9.30046 50.8114 7.88294 51.1435 7.79917C51.8387 7.62391 53.7357 7.68708 54.1511 7.70838C55.0481 7.75447 55.7689 7.79121 56.4731 8.35232C57.3153 9.02342 57.4326 9.90533 57.1613 10.8806C57.0173 11.3989 56.7126 11.5962 56.3197 11.9511C56.2453 12.0183 55.952 12.1769 55.9357 12.1804ZM52.9165 10.7587C52.9165 10.9185 53.0524 11.0482 53.2212 11.0498C54.1269 11.0582 55.4909 11.0262 55.268 9.91376C55.2225 9.68678 54.7397 9.33603 54.3836 9.33369L53.2242 9.33673C53.0544 9.33673 52.9168 9.46707 52.9168 9.62782V10.7587H52.9165Z" fill="black"/>
<path d="M38.7384 11.987C38.1325 11.9792 38.1285 12.7884 38.4265 13.0266C38.7381 13.2302 41.0201 12.9154 41.7219 13.2072C42.2601 13.4309 42.3167 14.5971 41.4753 14.6395C40.0137 14.7132 38.6934 14.6849 37.0145 14.6849C36.6572 14.6849 36.4581 14.5265 36.3189 14.3365C36.2619 14.2586 36.2329 14.165 36.2344 14.0702L36.3182 8.54118C36.3617 7.99856 36.4763 7.76994 37.0971 7.71215C38.0316 7.6134 39.7769 7.65505 40.7483 7.70794C41.0095 7.72221 41.6374 7.80551 41.7983 7.92485C42.0543 8.11438 42.123 8.86339 41.8808 9.12032C41.6515 9.36367 39.7154 9.22538 38.7141 9.26094C38.467 9.2696 38.2548 9.505 38.2335 9.74063C38.2135 9.96316 38.2842 10.1836 38.3805 10.2521C38.5906 10.4012 39.8128 10.3485 40.1745 10.3485C40.4617 10.3485 41.0359 10.3251 41.2297 10.4286C41.6987 10.6792 41.6767 11.9872 40.9262 11.9872H38.7384V11.987Z" fill="black"/>
<path d="M47.8822 13.6255C47.179 13.6094 45.664 13.5923 44.9607 13.6323C44.8708 13.6375 44.786 13.6719 44.743 13.7467C44.5204 14.1328 44.227 15.2342 43.1635 14.6733C42.5341 14.3413 42.6389 13.9477 42.8136 13.4182C43.2488 12.099 44.2221 10.0365 44.8722 8.76573C45.3316 7.86814 45.3941 7.56676 46.7357 7.64725C47.4641 7.69101 47.6317 8.37637 47.9131 8.93678C48.479 10.0639 49.7333 12.6011 50.0224 13.7126C50.2718 14.6719 49.0471 15.1865 48.3955 14.5552C48.1899 14.356 48.0322 13.6293 47.8825 13.6258H47.8822V13.6255ZM46.4369 9.93499C46.3554 9.83531 46.2832 9.99045 46.2476 10.0562C45.9736 10.5612 45.8243 11.2461 45.601 11.8107C45.5669 11.8968 45.6185 11.9637 45.7154 11.9595C46.1488 11.9403 46.4819 11.9504 46.9857 11.9501C47.0431 11.9501 47.0833 11.9061 47.0744 11.8526C46.9986 11.4035 46.5044 10.0174 46.4372 9.93499H46.4369Z" fill="black"/>
<path d="M68.1969 12.8716C69.6793 12.8316 69.6845 14.9897 68.1 14.8009C66.8783 14.6554 66.8991 12.9065 68.1969 12.8716Z" fill="black"/>
</g>
<defs>
<clipPath id="clip0_5362_1680">
<rect width="24.9552" height="18" fill="white"/>
</clipPath>
<clipPath id="clip1_5362_1680">
<rect width="47.6418" height="7.3125" fill="white" transform="translate(28.3594 7.59375)"/>
</clipPath>
</defs>
</svg>
